<mxfile host="app.diagrams.net" modified="2023-10-18T00:33:25.347Z" agent="Mozilla/5.0 (Windows NT 10.0; Win64; x64) AppleWebKit/537.36 (KHTML, like Gecko) Chrome/115.0.0.0 Safari/537.36" etag="zOk4OLciOI0IsDjpJC9A" version="22.0.4" type="github">
  <diagram name="Page-1" id="qAzXJGpyF3rfATaiqW-a">
    <mxGraphModel dx="1764" dy="1062" grid="1" gridSize="10" guides="1" tooltips="1" connect="1" arrows="1" fold="1" page="1" pageScale="1" pageWidth="850" pageHeight="1100" math="0" shadow="0">
      <root>
        <mxCell id="0" />
        <mxCell id="1" parent="0" />
        <mxCell id="CTbpurZV8oxsPShDTT_T-1" value="" style="shape=table;startSize=0;container=1;collapsible=0;childLayout=tableLayout;fontSize=16;" vertex="1" parent="1">
          <mxGeometry x="270" y="30" width="250" height="530" as="geometry" />
        </mxCell>
        <mxCell id="CTbpurZV8oxsPShDTT_T-2" value="" style="shape=tableRow;horizontal=0;startSize=0;swimlaneHead=0;swimlaneBody=0;strokeColor=inherit;top=0;left=0;bottom=0;right=0;collapsible=0;dropTarget=0;fillColor=none;points=[[0,0.5],[1,0.5]];portConstraint=eastwest;fontSize=16;" vertex="1" parent="CTbpurZV8oxsPShDTT_T-1">
          <mxGeometry width="250" height="40" as="geometry" />
        </mxCell>
        <mxCell id="CTbpurZV8oxsPShDTT_T-3" value="Step&lt;span style=&quot;white-space: pre;&quot;&gt;&#x9;&lt;/span&gt;" style="shape=partialRectangle;html=1;whiteSpace=wrap;connectable=0;strokeColor=#6c8ebf;overflow=hidden;fillColor=#dae8fc;top=0;left=0;bottom=0;right=0;pointerEvents=1;fontSize=16;labelBorderColor=none;" vertex="1" parent="CTbpurZV8oxsPShDTT_T-2">
          <mxGeometry width="120" height="40" as="geometry">
            <mxRectangle width="120" height="40" as="alternateBounds" />
          </mxGeometry>
        </mxCell>
        <mxCell id="CTbpurZV8oxsPShDTT_T-4" value="Result" style="shape=partialRectangle;html=1;whiteSpace=wrap;connectable=0;strokeColor=#6c8ebf;overflow=hidden;fillColor=#dae8fc;top=0;left=0;bottom=0;right=0;pointerEvents=1;fontSize=16;" vertex="1" parent="CTbpurZV8oxsPShDTT_T-2">
          <mxGeometry x="120" width="130" height="40" as="geometry">
            <mxRectangle width="130" height="40" as="alternateBounds" />
          </mxGeometry>
        </mxCell>
        <mxCell id="CTbpurZV8oxsPShDTT_T-6" value="" style="shape=tableRow;horizontal=0;startSize=0;swimlaneHead=0;swimlaneBody=0;strokeColor=inherit;top=0;left=0;bottom=0;right=0;collapsible=0;dropTarget=0;fillColor=none;points=[[0,0.5],[1,0.5]];portConstraint=eastwest;fontSize=16;" vertex="1" parent="CTbpurZV8oxsPShDTT_T-1">
          <mxGeometry y="40" width="250" height="40" as="geometry" />
        </mxCell>
        <mxCell id="CTbpurZV8oxsPShDTT_T-7" value="&lt;font style=&quot;font-size: 10px;&quot;&gt;Start&lt;/font&gt;" style="shape=partialRectangle;html=1;whiteSpace=wrap;connectable=0;strokeColor=inherit;overflow=hidden;fillColor=none;top=0;left=0;bottom=0;right=0;pointerEvents=1;fontSize=10;" vertex="1" parent="CTbpurZV8oxsPShDTT_T-6">
          <mxGeometry width="120" height="40" as="geometry">
            <mxRectangle width="120" height="40" as="alternateBounds" />
          </mxGeometry>
        </mxCell>
        <mxCell id="CTbpurZV8oxsPShDTT_T-8" value="----" style="shape=partialRectangle;html=1;whiteSpace=wrap;connectable=0;strokeColor=inherit;overflow=hidden;fillColor=none;top=0;left=0;bottom=0;right=0;pointerEvents=1;fontSize=10;" vertex="1" parent="CTbpurZV8oxsPShDTT_T-6">
          <mxGeometry x="120" width="130" height="40" as="geometry">
            <mxRectangle width="130" height="40" as="alternateBounds" />
          </mxGeometry>
        </mxCell>
        <mxCell id="CTbpurZV8oxsPShDTT_T-10" value="" style="shape=tableRow;horizontal=0;startSize=0;swimlaneHead=0;swimlaneBody=0;strokeColor=inherit;top=0;left=0;bottom=0;right=0;collapsible=0;dropTarget=0;fillColor=none;points=[[0,0.5],[1,0.5]];portConstraint=eastwest;fontSize=16;" vertex="1" parent="CTbpurZV8oxsPShDTT_T-1">
          <mxGeometry y="80" width="250" height="40" as="geometry" />
        </mxCell>
        <mxCell id="CTbpurZV8oxsPShDTT_T-11" value="Get user&#39;s input on website&#39;s name" style="shape=partialRectangle;html=1;whiteSpace=wrap;connectable=0;strokeColor=inherit;overflow=hidden;fillColor=none;top=0;left=0;bottom=0;right=0;pointerEvents=1;fontSize=10;" vertex="1" parent="CTbpurZV8oxsPShDTT_T-10">
          <mxGeometry width="120" height="40" as="geometry">
            <mxRectangle width="120" height="40" as="alternateBounds" />
          </mxGeometry>
        </mxCell>
        <mxCell id="CTbpurZV8oxsPShDTT_T-12" value="website_name =&amp;nbsp; Gmail" style="shape=partialRectangle;html=1;whiteSpace=wrap;connectable=0;strokeColor=inherit;overflow=hidden;fillColor=none;top=0;left=0;bottom=0;right=0;pointerEvents=1;fontSize=10;" vertex="1" parent="CTbpurZV8oxsPShDTT_T-10">
          <mxGeometry x="120" width="130" height="40" as="geometry">
            <mxRectangle width="130" height="40" as="alternateBounds" />
          </mxGeometry>
        </mxCell>
        <mxCell id="CTbpurZV8oxsPShDTT_T-14" style="shape=tableRow;horizontal=0;startSize=0;swimlaneHead=0;swimlaneBody=0;strokeColor=inherit;top=0;left=0;bottom=0;right=0;collapsible=0;dropTarget=0;fillColor=none;points=[[0,0.5],[1,0.5]];portConstraint=eastwest;fontSize=16;" vertex="1" parent="CTbpurZV8oxsPShDTT_T-1">
          <mxGeometry y="120" width="250" height="40" as="geometry" />
        </mxCell>
        <mxCell id="CTbpurZV8oxsPShDTT_T-15" value="Get user&#39;s input on the name of the company" style="shape=partialRectangle;html=1;whiteSpace=wrap;connectable=0;strokeColor=inherit;overflow=hidden;fillColor=none;top=0;left=0;bottom=0;right=0;pointerEvents=1;fontSize=10;" vertex="1" parent="CTbpurZV8oxsPShDTT_T-14">
          <mxGeometry width="120" height="40" as="geometry">
            <mxRectangle width="120" height="40" as="alternateBounds" />
          </mxGeometry>
        </mxCell>
        <mxCell id="CTbpurZV8oxsPShDTT_T-16" value="company_name = Google" style="shape=partialRectangle;html=1;whiteSpace=wrap;connectable=0;strokeColor=inherit;overflow=hidden;fillColor=none;top=0;left=0;bottom=0;right=0;pointerEvents=1;fontSize=10;" vertex="1" parent="CTbpurZV8oxsPShDTT_T-14">
          <mxGeometry x="120" width="130" height="40" as="geometry">
            <mxRectangle width="130" height="40" as="alternateBounds" />
          </mxGeometry>
        </mxCell>
        <mxCell id="CTbpurZV8oxsPShDTT_T-17" style="shape=tableRow;horizontal=0;startSize=0;swimlaneHead=0;swimlaneBody=0;strokeColor=inherit;top=0;left=0;bottom=0;right=0;collapsible=0;dropTarget=0;fillColor=none;points=[[0,0.5],[1,0.5]];portConstraint=eastwest;fontSize=16;" vertex="1" parent="CTbpurZV8oxsPShDTT_T-1">
          <mxGeometry y="160" width="250" height="50" as="geometry" />
        </mxCell>
        <mxCell id="CTbpurZV8oxsPShDTT_T-18" value="Get user&#39;s favorite number, keep asking until answer is less than or equal to 100" style="shape=partialRectangle;html=1;whiteSpace=wrap;connectable=0;strokeColor=inherit;overflow=hidden;fillColor=none;top=0;left=0;bottom=0;right=0;pointerEvents=1;fontSize=10;" vertex="1" parent="CTbpurZV8oxsPShDTT_T-17">
          <mxGeometry width="120" height="50" as="geometry">
            <mxRectangle width="120" height="50" as="alternateBounds" />
          </mxGeometry>
        </mxCell>
        <mxCell id="CTbpurZV8oxsPShDTT_T-19" value="fav_number = 86" style="shape=partialRectangle;html=1;whiteSpace=wrap;connectable=0;strokeColor=inherit;overflow=hidden;fillColor=none;top=0;left=0;bottom=0;right=0;pointerEvents=1;fontSize=10;" vertex="1" parent="CTbpurZV8oxsPShDTT_T-17">
          <mxGeometry x="120" width="130" height="50" as="geometry">
            <mxRectangle width="130" height="50" as="alternateBounds" />
          </mxGeometry>
        </mxCell>
        <mxCell id="CTbpurZV8oxsPShDTT_T-20" style="shape=tableRow;horizontal=0;startSize=0;swimlaneHead=0;swimlaneBody=0;strokeColor=inherit;top=0;left=0;bottom=0;right=0;collapsible=0;dropTarget=0;fillColor=none;points=[[0,0.5],[1,0.5]];portConstraint=eastwest;fontSize=16;" vertex="1" parent="CTbpurZV8oxsPShDTT_T-1">
          <mxGeometry y="210" width="250" height="40" as="geometry" />
        </mxCell>
        <mxCell id="CTbpurZV8oxsPShDTT_T-21" value="Get first and last letters of website_name" style="shape=partialRectangle;html=1;whiteSpace=wrap;connectable=0;strokeColor=inherit;overflow=hidden;fillColor=none;top=0;left=0;bottom=0;right=0;pointerEvents=1;fontSize=10;" vertex="1" parent="CTbpurZV8oxsPShDTT_T-20">
          <mxGeometry width="120" height="40" as="geometry">
            <mxRectangle width="120" height="40" as="alternateBounds" />
          </mxGeometry>
        </mxCell>
        <mxCell id="CTbpurZV8oxsPShDTT_T-22" value="website_char = Gl" style="shape=partialRectangle;html=1;whiteSpace=wrap;connectable=0;strokeColor=inherit;overflow=hidden;fillColor=none;top=0;left=0;bottom=0;right=0;pointerEvents=1;fontSize=10;" vertex="1" parent="CTbpurZV8oxsPShDTT_T-20">
          <mxGeometry x="120" width="130" height="40" as="geometry">
            <mxRectangle width="130" height="40" as="alternateBounds" />
          </mxGeometry>
        </mxCell>
        <mxCell id="CTbpurZV8oxsPShDTT_T-23" style="shape=tableRow;horizontal=0;startSize=0;swimlaneHead=0;swimlaneBody=0;strokeColor=inherit;top=0;left=0;bottom=0;right=0;collapsible=0;dropTarget=0;fillColor=none;points=[[0,0.5],[1,0.5]];portConstraint=eastwest;fontSize=16;" vertex="1" parent="CTbpurZV8oxsPShDTT_T-1">
          <mxGeometry y="250" width="250" height="50" as="geometry" />
        </mxCell>
        <mxCell id="CTbpurZV8oxsPShDTT_T-24" value="If favorite number is greater than 50, make last character uppercase and first character lowercase" style="shape=partialRectangle;html=1;whiteSpace=wrap;connectable=0;strokeColor=inherit;overflow=hidden;fillColor=none;top=0;left=0;bottom=0;right=0;pointerEvents=1;fontSize=10;" vertex="1" parent="CTbpurZV8oxsPShDTT_T-23">
          <mxGeometry width="120" height="50" as="geometry">
            <mxRectangle width="120" height="50" as="alternateBounds" />
          </mxGeometry>
        </mxCell>
        <mxCell id="CTbpurZV8oxsPShDTT_T-25" value="website_char = gL" style="shape=partialRectangle;html=1;whiteSpace=wrap;connectable=0;strokeColor=inherit;overflow=hidden;fillColor=none;top=0;left=0;bottom=0;right=0;pointerEvents=1;fontSize=10;" vertex="1" parent="CTbpurZV8oxsPShDTT_T-23">
          <mxGeometry x="120" width="130" height="50" as="geometry">
            <mxRectangle width="130" height="50" as="alternateBounds" />
          </mxGeometry>
        </mxCell>
        <mxCell id="CTbpurZV8oxsPShDTT_T-32" style="shape=tableRow;horizontal=0;startSize=0;swimlaneHead=0;swimlaneBody=0;strokeColor=inherit;top=0;left=0;bottom=0;right=0;collapsible=0;dropTarget=0;fillColor=none;points=[[0,0.5],[1,0.5]];portConstraint=eastwest;fontSize=16;" vertex="1" parent="CTbpurZV8oxsPShDTT_T-1">
          <mxGeometry y="300" width="250" height="50" as="geometry" />
        </mxCell>
        <mxCell id="CTbpurZV8oxsPShDTT_T-33" value="&lt;span style=&quot;color: rgb(0, 0, 0); font-family: Helvetica; font-size: 10px; font-style: normal; font-variant-ligatures: normal; font-variant-caps: normal; font-weight: 400; letter-spacing: normal; orphans: 2; text-align: center; text-indent: 0px; text-transform: none; widows: 2; word-spacing: 0px; -webkit-text-stroke-width: 0px; background-color: rgb(251, 251, 251); text-decoration-thickness: initial; text-decoration-style: initial; text-decoration-color: initial; float: none; display: inline !important;&quot;&gt;If favorite number is greater than 50, make first character uppercase and last character lowercase&lt;/span&gt;" style="shape=partialRectangle;html=1;whiteSpace=wrap;connectable=0;strokeColor=inherit;overflow=hidden;fillColor=none;top=0;left=0;bottom=0;right=0;pointerEvents=1;fontSize=10;" vertex="1" parent="CTbpurZV8oxsPShDTT_T-32">
          <mxGeometry width="120" height="50" as="geometry">
            <mxRectangle width="120" height="50" as="alternateBounds" />
          </mxGeometry>
        </mxCell>
        <mxCell id="CTbpurZV8oxsPShDTT_T-34" value="website_char = Gl" style="shape=partialRectangle;html=1;whiteSpace=wrap;connectable=0;strokeColor=inherit;overflow=hidden;fillColor=none;top=0;left=0;bottom=0;right=0;pointerEvents=1;fontSize=10;" vertex="1" parent="CTbpurZV8oxsPShDTT_T-32">
          <mxGeometry x="120" width="130" height="50" as="geometry">
            <mxRectangle width="130" height="50" as="alternateBounds" />
          </mxGeometry>
        </mxCell>
        <mxCell id="CTbpurZV8oxsPShDTT_T-29" style="shape=tableRow;horizontal=0;startSize=0;swimlaneHead=0;swimlaneBody=0;strokeColor=inherit;top=0;left=0;bottom=0;right=0;collapsible=0;dropTarget=0;fillColor=none;points=[[0,0.5],[1,0.5]];portConstraint=eastwest;fontSize=16;" vertex="1" parent="CTbpurZV8oxsPShDTT_T-1">
          <mxGeometry y="350" width="250" height="40" as="geometry" />
        </mxCell>
        <mxCell id="CTbpurZV8oxsPShDTT_T-30" value="Split company_name into half" style="shape=partialRectangle;html=1;whiteSpace=wrap;connectable=0;strokeColor=inherit;overflow=hidden;fillColor=none;top=0;left=0;bottom=0;right=0;pointerEvents=1;fontSize=10;" vertex="1" parent="CTbpurZV8oxsPShDTT_T-29">
          <mxGeometry width="120" height="40" as="geometry">
            <mxRectangle width="120" height="40" as="alternateBounds" />
          </mxGeometry>
        </mxCell>
        <mxCell id="CTbpurZV8oxsPShDTT_T-31" value="split_company_name = Goo" style="shape=partialRectangle;html=1;whiteSpace=wrap;connectable=0;strokeColor=inherit;overflow=hidden;fillColor=none;top=0;left=0;bottom=0;right=0;pointerEvents=1;fontSize=10;" vertex="1" parent="CTbpurZV8oxsPShDTT_T-29">
          <mxGeometry x="120" width="130" height="40" as="geometry">
            <mxRectangle width="130" height="40" as="alternateBounds" />
          </mxGeometry>
        </mxCell>
        <mxCell id="CTbpurZV8oxsPShDTT_T-26" style="shape=tableRow;horizontal=0;startSize=0;swimlaneHead=0;swimlaneBody=0;strokeColor=inherit;top=0;left=0;bottom=0;right=0;collapsible=0;dropTarget=0;fillColor=none;points=[[0,0.5],[1,0.5]];portConstraint=eastwest;fontSize=16;" vertex="1" parent="CTbpurZV8oxsPShDTT_T-1">
          <mxGeometry y="390" width="250" height="60" as="geometry" />
        </mxCell>
        <mxCell id="CTbpurZV8oxsPShDTT_T-27" value="Make password by adding website_char, split_company_name, and fav_number together" style="shape=partialRectangle;html=1;whiteSpace=wrap;connectable=0;strokeColor=inherit;overflow=hidden;fillColor=none;top=0;left=0;bottom=0;right=0;pointerEvents=1;fontSize=10;" vertex="1" parent="CTbpurZV8oxsPShDTT_T-26">
          <mxGeometry width="120" height="60" as="geometry">
            <mxRectangle width="120" height="60" as="alternateBounds" />
          </mxGeometry>
        </mxCell>
        <mxCell id="CTbpurZV8oxsPShDTT_T-28" value="&lt;span style=&quot;color: rgb(0, 0, 0); font-family: Helvetica; font-size: 10px; font-style: normal; font-variant-ligatures: normal; font-variant-caps: normal; font-weight: 400; letter-spacing: normal; orphans: 2; text-align: center; text-indent: 0px; text-transform: none; widows: 2; word-spacing: 0px; -webkit-text-stroke-width: 0px; background-color: rgb(251, 251, 251); text-decoration-thickness: initial; text-decoration-style: initial; text-decoration-color: initial; float: none; display: inline !important;&quot;&gt;password = gLGoo86&lt;/span&gt;" style="shape=partialRectangle;html=1;whiteSpace=wrap;connectable=0;strokeColor=inherit;overflow=hidden;fillColor=none;top=0;left=0;bottom=0;right=0;pointerEvents=1;fontSize=10;" vertex="1" parent="CTbpurZV8oxsPShDTT_T-26">
          <mxGeometry x="120" width="130" height="60" as="geometry">
            <mxRectangle width="130" height="60" as="alternateBounds" />
          </mxGeometry>
        </mxCell>
        <mxCell id="CTbpurZV8oxsPShDTT_T-38" style="shape=tableRow;horizontal=0;startSize=0;swimlaneHead=0;swimlaneBody=0;strokeColor=inherit;top=0;left=0;bottom=0;right=0;collapsible=0;dropTarget=0;fillColor=none;points=[[0,0.5],[1,0.5]];portConstraint=eastwest;fontSize=16;" vertex="1" parent="CTbpurZV8oxsPShDTT_T-1">
          <mxGeometry y="450" width="250" height="40" as="geometry" />
        </mxCell>
        <mxCell id="CTbpurZV8oxsPShDTT_T-39" value="Output/Print &quot;Your password is: &quot; and password&amp;nbsp;" style="shape=partialRectangle;html=1;whiteSpace=wrap;connectable=0;strokeColor=inherit;overflow=hidden;fillColor=none;top=0;left=0;bottom=0;right=0;pointerEvents=1;fontSize=10;" vertex="1" parent="CTbpurZV8oxsPShDTT_T-38">
          <mxGeometry width="120" height="40" as="geometry">
            <mxRectangle width="120" height="40" as="alternateBounds" />
          </mxGeometry>
        </mxCell>
        <mxCell id="CTbpurZV8oxsPShDTT_T-40" value="Your password is: gLGoo86" style="shape=partialRectangle;html=1;whiteSpace=wrap;connectable=0;strokeColor=inherit;overflow=hidden;fillColor=none;top=0;left=0;bottom=0;right=0;pointerEvents=1;fontSize=10;" vertex="1" parent="CTbpurZV8oxsPShDTT_T-38">
          <mxGeometry x="120" width="130" height="40" as="geometry">
            <mxRectangle width="130" height="40" as="alternateBounds" />
          </mxGeometry>
        </mxCell>
        <mxCell id="CTbpurZV8oxsPShDTT_T-35" style="shape=tableRow;horizontal=0;startSize=0;swimlaneHead=0;swimlaneBody=0;strokeColor=inherit;top=0;left=0;bottom=0;right=0;collapsible=0;dropTarget=0;fillColor=none;points=[[0,0.5],[1,0.5]];portConstraint=eastwest;fontSize=16;" vertex="1" parent="CTbpurZV8oxsPShDTT_T-1">
          <mxGeometry y="490" width="250" height="40" as="geometry" />
        </mxCell>
        <mxCell id="CTbpurZV8oxsPShDTT_T-36" value="End" style="shape=partialRectangle;html=1;whiteSpace=wrap;connectable=0;strokeColor=inherit;overflow=hidden;fillColor=none;top=0;left=0;bottom=0;right=0;pointerEvents=1;fontSize=10;" vertex="1" parent="CTbpurZV8oxsPShDTT_T-35">
          <mxGeometry width="120" height="40" as="geometry">
            <mxRectangle width="120" height="40" as="alternateBounds" />
          </mxGeometry>
        </mxCell>
        <mxCell id="CTbpurZV8oxsPShDTT_T-37" value="----" style="shape=partialRectangle;html=1;whiteSpace=wrap;connectable=0;strokeColor=inherit;overflow=hidden;fillColor=none;top=0;left=0;bottom=0;right=0;pointerEvents=1;fontSize=10;" vertex="1" parent="CTbpurZV8oxsPShDTT_T-35">
          <mxGeometry x="120" width="130" height="40" as="geometry">
            <mxRectangle width="130" height="40" as="alternateBounds" />
          </mxGeometry>
        </mxCell>
        <mxCell id="CTbpurZV8oxsPShDTT_T-41" value="Start&amp;nbsp;" style="ellipse;whiteSpace=wrap;html=1;" vertex="1" parent="1">
          <mxGeometry x="10" y="20" width="174.98" height="50" as="geometry" />
        </mxCell>
        <mxCell id="CTbpurZV8oxsPShDTT_T-42" style="edgeStyle=orthogonalEdgeStyle;rounded=0;orthogonalLoop=1;jettySize=auto;html=1;entryX=0.5;entryY=0;entryDx=0;entryDy=0;" edge="1" parent="1" source="CTbpurZV8oxsPShDTT_T-43" target="CTbpurZV8oxsPShDTT_T-45">
          <mxGeometry relative="1" as="geometry" />
        </mxCell>
        <mxCell id="CTbpurZV8oxsPShDTT_T-43" value="Output &quot;Enter Website name&quot;&amp;nbsp; &amp;nbsp;" style="shape=parallelogram;perimeter=parallelogramPerimeter;whiteSpace=wrap;html=1;fixedSize=1;" vertex="1" parent="1">
          <mxGeometry y="140" width="200" height="90" as="geometry" />
        </mxCell>
        <mxCell id="CTbpurZV8oxsPShDTT_T-44" style="edgeStyle=orthogonalEdgeStyle;rounded=0;orthogonalLoop=1;jettySize=auto;html=1;entryX=0.5;entryY=0;entryDx=0;entryDy=0;" edge="1" parent="1" source="CTbpurZV8oxsPShDTT_T-45" target="CTbpurZV8oxsPShDTT_T-47">
          <mxGeometry relative="1" as="geometry" />
        </mxCell>
        <mxCell id="CTbpurZV8oxsPShDTT_T-45" value="Input&amp;nbsp; website_name&amp;nbsp;" style="shape=parallelogram;perimeter=parallelogramPerimeter;whiteSpace=wrap;html=1;fixedSize=1;" vertex="1" parent="1">
          <mxGeometry x="7.5" y="280" width="185" height="110" as="geometry" />
        </mxCell>
        <mxCell id="CTbpurZV8oxsPShDTT_T-46" style="edgeStyle=orthogonalEdgeStyle;rounded=0;orthogonalLoop=1;jettySize=auto;html=1;entryX=0.5;entryY=0;entryDx=0;entryDy=0;" edge="1" parent="1" source="CTbpurZV8oxsPShDTT_T-47" target="CTbpurZV8oxsPShDTT_T-49">
          <mxGeometry relative="1" as="geometry" />
        </mxCell>
        <mxCell id="CTbpurZV8oxsPShDTT_T-47" value="Output &quot;Enter Company name&quot;&amp;nbsp;" style="shape=parallelogram;perimeter=parallelogramPerimeter;whiteSpace=wrap;html=1;fixedSize=1;" vertex="1" parent="1">
          <mxGeometry x="20.000000000000007" y="470" width="160" height="80" as="geometry" />
        </mxCell>
        <mxCell id="CTbpurZV8oxsPShDTT_T-48" style="edgeStyle=orthogonalEdgeStyle;rounded=0;orthogonalLoop=1;jettySize=auto;html=1;entryX=0.5;entryY=0;entryDx=0;entryDy=0;" edge="1" parent="1" source="CTbpurZV8oxsPShDTT_T-49" target="CTbpurZV8oxsPShDTT_T-52">
          <mxGeometry relative="1" as="geometry" />
        </mxCell>
        <mxCell id="CTbpurZV8oxsPShDTT_T-49" value="Input comapany_name" style="shape=parallelogram;perimeter=parallelogramPerimeter;whiteSpace=wrap;html=1;fixedSize=1;" vertex="1" parent="1">
          <mxGeometry x="25" y="620" width="150" height="70" as="geometry" />
        </mxCell>
        <mxCell id="CTbpurZV8oxsPShDTT_T-50" style="edgeStyle=orthogonalEdgeStyle;rounded=0;orthogonalLoop=1;jettySize=auto;html=1;" edge="1" parent="1">
          <mxGeometry relative="1" as="geometry">
            <mxPoint x="347" y="810" as="targetPoint" />
            <mxPoint x="198" y="1065" as="sourcePoint" />
            <Array as="points">
              <mxPoint x="197.43" y="1065" />
              <mxPoint x="347.43" y="1065" />
            </Array>
          </mxGeometry>
        </mxCell>
        <mxCell id="CTbpurZV8oxsPShDTT_T-51" value="fav_number &amp;lt;= 100&amp;nbsp;&amp;nbsp;" style="rhombus;whiteSpace=wrap;html=1;" vertex="1" parent="1">
          <mxGeometry x="2.5" y="1000" width="195" height="130" as="geometry" />
        </mxCell>
        <mxCell id="CTbpurZV8oxsPShDTT_T-52" value="Output &quot;Enter fav_number&quot;&amp;nbsp;" style="shape=parallelogram;perimeter=parallelogramPerimeter;whiteSpace=wrap;html=1;fixedSize=1;" vertex="1" parent="1">
          <mxGeometry x="10" y="780" width="180" height="70" as="geometry" />
        </mxCell>
        <mxCell id="CTbpurZV8oxsPShDTT_T-53" style="edgeStyle=orthogonalEdgeStyle;rounded=0;orthogonalLoop=1;jettySize=auto;html=1;entryX=0.5;entryY=0;entryDx=0;entryDy=0;" edge="1" parent="1" source="CTbpurZV8oxsPShDTT_T-54" target="CTbpurZV8oxsPShDTT_T-51">
          <mxGeometry relative="1" as="geometry" />
        </mxCell>
        <mxCell id="CTbpurZV8oxsPShDTT_T-54" value="Input fav_number" style="shape=parallelogram;perimeter=parallelogramPerimeter;whiteSpace=wrap;html=1;fixedSize=1;" vertex="1" parent="1">
          <mxGeometry x="35" y="890" width="130" height="60" as="geometry" />
        </mxCell>
        <mxCell id="CTbpurZV8oxsPShDTT_T-55" style="edgeStyle=orthogonalEdgeStyle;rounded=0;orthogonalLoop=1;jettySize=auto;html=1;entryX=0.5;entryY=0;entryDx=0;entryDy=0;" edge="1" parent="1" source="CTbpurZV8oxsPShDTT_T-56" target="CTbpurZV8oxsPShDTT_T-59">
          <mxGeometry relative="1" as="geometry">
            <Array as="points">
              <mxPoint x="100" y="1360" />
              <mxPoint x="100" y="1360" />
            </Array>
          </mxGeometry>
        </mxCell>
        <mxCell id="CTbpurZV8oxsPShDTT_T-56" value="website_char = first and last letters of website_name&amp;nbsp;" style="shape=internalStorage;whiteSpace=wrap;html=1;backgroundOutline=1;" vertex="1" parent="1">
          <mxGeometry x="10" y="1210" width="260" height="130" as="geometry" />
        </mxCell>
        <mxCell id="CTbpurZV8oxsPShDTT_T-57" style="edgeStyle=orthogonalEdgeStyle;rounded=0;orthogonalLoop=1;jettySize=auto;html=1;entryX=0.5;entryY=0;entryDx=0;entryDy=0;" edge="1" parent="1" source="CTbpurZV8oxsPShDTT_T-59" target="CTbpurZV8oxsPShDTT_T-61">
          <mxGeometry relative="1" as="geometry" />
        </mxCell>
        <mxCell id="CTbpurZV8oxsPShDTT_T-58" style="edgeStyle=orthogonalEdgeStyle;rounded=0;orthogonalLoop=1;jettySize=auto;html=1;entryX=0;entryY=0.5;entryDx=0;entryDy=0;" edge="1" parent="1" source="CTbpurZV8oxsPShDTT_T-59" target="CTbpurZV8oxsPShDTT_T-63">
          <mxGeometry relative="1" as="geometry" />
        </mxCell>
        <mxCell id="CTbpurZV8oxsPShDTT_T-59" value="fav_number &amp;gt; 50" style="rhombus;whiteSpace=wrap;html=1;" vertex="1" parent="1">
          <mxGeometry x="15" y="1430" width="170" height="151" as="geometry" />
        </mxCell>
        <mxCell id="CTbpurZV8oxsPShDTT_T-60" style="edgeStyle=orthogonalEdgeStyle;rounded=0;orthogonalLoop=1;jettySize=auto;html=1;" edge="1" parent="1" source="CTbpurZV8oxsPShDTT_T-61">
          <mxGeometry relative="1" as="geometry">
            <mxPoint x="250" y="1710" as="targetPoint" />
          </mxGeometry>
        </mxCell>
        <mxCell id="CTbpurZV8oxsPShDTT_T-61" value="make first letter of website_char uppercase, last letter is lowercase&amp;nbsp;" style="rounded=0;whiteSpace=wrap;html=1;" vertex="1" parent="1">
          <mxGeometry x="40.00000000000001" y="1680" width="120" height="60" as="geometry" />
        </mxCell>
        <mxCell id="CTbpurZV8oxsPShDTT_T-62" style="edgeStyle=orthogonalEdgeStyle;rounded=0;orthogonalLoop=1;jettySize=auto;html=1;entryX=0;entryY=0.5;entryDx=0;entryDy=0;" edge="1" parent="1" source="CTbpurZV8oxsPShDTT_T-63" target="CTbpurZV8oxsPShDTT_T-65">
          <mxGeometry relative="1" as="geometry" />
        </mxCell>
        <mxCell id="CTbpurZV8oxsPShDTT_T-63" value="make last letter of website_char uppercase, first letter is lowercase&amp;nbsp;" style="rounded=0;whiteSpace=wrap;html=1;" vertex="1" parent="1">
          <mxGeometry x="260" y="1475.5" width="120" height="60" as="geometry" />
        </mxCell>
        <mxCell id="CTbpurZV8oxsPShDTT_T-64" style="edgeStyle=orthogonalEdgeStyle;rounded=0;orthogonalLoop=1;jettySize=auto;html=1;" edge="1" parent="1" source="CTbpurZV8oxsPShDTT_T-65">
          <mxGeometry relative="1" as="geometry">
            <mxPoint x="860" y="1506" as="targetPoint" />
          </mxGeometry>
        </mxCell>
        <mxCell id="CTbpurZV8oxsPShDTT_T-65" value="split_company_name = half of comapny_name&amp;nbsp;" style="shape=internalStorage;whiteSpace=wrap;html=1;backgroundOutline=1;" vertex="1" parent="1">
          <mxGeometry x="420" y="1450.5" width="340" height="110" as="geometry" />
        </mxCell>
        <mxCell id="CTbpurZV8oxsPShDTT_T-66" style="edgeStyle=orthogonalEdgeStyle;rounded=0;orthogonalLoop=1;jettySize=auto;html=1;entryX=0.5;entryY=0;entryDx=0;entryDy=0;" edge="1" parent="1" source="CTbpurZV8oxsPShDTT_T-67" target="CTbpurZV8oxsPShDTT_T-69">
          <mxGeometry relative="1" as="geometry">
            <Array as="points">
              <mxPoint x="855" y="1800" />
              <mxPoint x="855" y="1800" />
            </Array>
          </mxGeometry>
        </mxCell>
        <mxCell id="CTbpurZV8oxsPShDTT_T-67" value="Password = website_char + split_company_name + fav_number&amp;nbsp;" style="shape=internalStorage;whiteSpace=wrap;html=1;backgroundOutline=1;" vertex="1" parent="1">
          <mxGeometry x="680" y="1655" width="330" height="110" as="geometry" />
        </mxCell>
        <mxCell id="CTbpurZV8oxsPShDTT_T-68" style="edgeStyle=orthogonalEdgeStyle;rounded=0;orthogonalLoop=1;jettySize=auto;html=1;entryX=0.5;entryY=0;entryDx=0;entryDy=0;" edge="1" parent="1" source="CTbpurZV8oxsPShDTT_T-69" target="CTbpurZV8oxsPShDTT_T-70">
          <mxGeometry relative="1" as="geometry" />
        </mxCell>
        <mxCell id="CTbpurZV8oxsPShDTT_T-69" value="Output password" style="shape=parallelogram;perimeter=parallelogramPerimeter;whiteSpace=wrap;html=1;fixedSize=1;" vertex="1" parent="1">
          <mxGeometry x="787.5" y="1890" width="135" height="70" as="geometry" />
        </mxCell>
        <mxCell id="CTbpurZV8oxsPShDTT_T-70" value="End&amp;nbsp;" style="ellipse;whiteSpace=wrap;html=1;" vertex="1" parent="1">
          <mxGeometry x="795" y="2070" width="120" height="80" as="geometry" />
        </mxCell>
        <mxCell id="CTbpurZV8oxsPShDTT_T-71" style="edgeStyle=orthogonalEdgeStyle;rounded=0;orthogonalLoop=1;jettySize=auto;html=1;" edge="1" parent="1" source="CTbpurZV8oxsPShDTT_T-41">
          <mxGeometry relative="1" as="geometry">
            <mxPoint x="97" y="140" as="targetPoint" />
          </mxGeometry>
        </mxCell>
        <mxCell id="CTbpurZV8oxsPShDTT_T-72" value="False&amp;nbsp;" style="text;html=1;strokeColor=none;fillColor=none;align=center;verticalAlign=middle;whiteSpace=wrap;rounded=0;" vertex="1" parent="1">
          <mxGeometry x="180" y="1446" width="60" height="30" as="geometry" />
        </mxCell>
        <mxCell id="CTbpurZV8oxsPShDTT_T-73" value="True&amp;nbsp;" style="text;html=1;strokeColor=none;fillColor=none;align=center;verticalAlign=middle;whiteSpace=wrap;rounded=0;" vertex="1" parent="1">
          <mxGeometry x="175" y="1651" width="60" height="30" as="geometry" />
        </mxCell>
        <mxCell id="CTbpurZV8oxsPShDTT_T-74" value="True&amp;nbsp;" style="text;html=1;strokeColor=none;fillColor=none;align=center;verticalAlign=middle;whiteSpace=wrap;rounded=0;" vertex="1" parent="1">
          <mxGeometry x="150" y="1160" width="60" height="30" as="geometry" />
        </mxCell>
        <mxCell id="CTbpurZV8oxsPShDTT_T-75" value="False&amp;nbsp;" style="text;html=1;strokeColor=none;fillColor=none;align=center;verticalAlign=middle;whiteSpace=wrap;rounded=0;" vertex="1" parent="1">
          <mxGeometry x="210" y="1020" width="60" height="30" as="geometry" />
        </mxCell>
        <mxCell id="CTbpurZV8oxsPShDTT_T-76" value="" style="endArrow=classic;html=1;rounded=0;entryX=0.952;entryY=0.426;entryDx=0;entryDy=0;entryPerimeter=0;" edge="1" parent="1" target="CTbpurZV8oxsPShDTT_T-52">
          <mxGeometry width="50" height="50" relative="1" as="geometry">
            <mxPoint x="350" y="810" as="sourcePoint" />
            <mxPoint x="280" y="740" as="targetPoint" />
            <Array as="points">
              <mxPoint x="210" y="810" />
            </Array>
          </mxGeometry>
        </mxCell>
        <mxCell id="CTbpurZV8oxsPShDTT_T-77" style="edgeStyle=orthogonalEdgeStyle;rounded=0;orthogonalLoop=1;jettySize=auto;html=1;entryX=0.35;entryY=-0.011;entryDx=0;entryDy=0;entryPerimeter=0;" edge="1" parent="1" source="CTbpurZV8oxsPShDTT_T-51" target="CTbpurZV8oxsPShDTT_T-56">
          <mxGeometry relative="1" as="geometry" />
        </mxCell>
        <mxCell id="CTbpurZV8oxsPShDTT_T-78" value="" style="endArrow=classic;html=1;rounded=0;exitX=0.5;exitY=1;exitDx=0;exitDy=0;entryX=0.5;entryY=0;entryDx=0;entryDy=0;" edge="1" parent="1" source="CTbpurZV8oxsPShDTT_T-52" target="CTbpurZV8oxsPShDTT_T-54">
          <mxGeometry width="50" height="50" relative="1" as="geometry">
            <mxPoint x="160" y="950" as="sourcePoint" />
            <mxPoint x="210" y="900" as="targetPoint" />
          </mxGeometry>
        </mxCell>
        <mxCell id="CTbpurZV8oxsPShDTT_T-79" style="edgeStyle=orthogonalEdgeStyle;rounded=0;orthogonalLoop=1;jettySize=auto;html=1;" edge="1" parent="1" source="CTbpurZV8oxsPShDTT_T-80">
          <mxGeometry relative="1" as="geometry">
            <mxPoint x="679.9999999999998" y="1721" as="targetPoint" />
          </mxGeometry>
        </mxCell>
        <mxCell id="CTbpurZV8oxsPShDTT_T-80" value="split_company_name = half of comapny_name&amp;nbsp;" style="shape=internalStorage;whiteSpace=wrap;html=1;backgroundOutline=1;" vertex="1" parent="1">
          <mxGeometry x="250" y="1681" width="310" height="80" as="geometry" />
        </mxCell>
        <mxCell id="CTbpurZV8oxsPShDTT_T-81" value="" style="endArrow=classic;html=1;rounded=0;" edge="1" parent="1">
          <mxGeometry width="50" height="50" relative="1" as="geometry">
            <mxPoint x="855" y="1510" as="sourcePoint" />
            <mxPoint x="855" y="1650" as="targetPoint" />
            <Array as="points" />
          </mxGeometry>
        </mxCell>
        <mxCell id="CTbpurZV8oxsPShDTT_T-84" value="&lt;div style=&quot;margin: 0px; padding: 0px; user-select: text; -webkit-user-drag: none; -webkit-tap-highlight-color: transparent; overflow: visible; cursor: text; clear: both; position: relative; direction: ltr; font-family: &amp;quot;Segoe UI&amp;quot;, &amp;quot;Segoe UI Web&amp;quot;, Arial, Verdana, sans-serif; text-align: start; background-color: rgb(255, 255, 255);&quot; class=&quot;OutlineElement Ltr SCXW79170018 BCX0&quot;&gt;&lt;p style=&quot;margin: 0px; padding: 0px; user-select: text; -webkit-user-drag: none; -webkit-tap-highlight-color: transparent; overflow-wrap: break-word; vertical-align: baseline; font-kerning: none; background-color: transparent; color: windowtext;&quot; class=&quot;Paragraph SCXW79170018 BCX0&quot;&gt;Knowledge Gaps:&lt;span style=&quot;margin: 0px; padding: 0px; user-select: text; -webkit-user-drag: none; -webkit-tap-highlight-color: transparent; font-size: 11pt; line-height: 19.425px; font-family: Calibri, Calibri_EmbeddedFont, Calibri_MSFontService, sans-serif;&quot; data-ccp-props=&quot;{&amp;quot;201341983&amp;quot;:0,&amp;quot;335559739&amp;quot;:160,&amp;quot;335559740&amp;quot;:259}&quot; class=&quot;EOP SCXW79170018 BCX0&quot;&gt;&amp;nbsp;&lt;/span&gt;&lt;/p&gt;&lt;/div&gt;&lt;div style=&quot;margin: 0px; padding: 0px; user-select: text; -webkit-user-drag: none; -webkit-tap-highlight-color: transparent; overflow: visible; cursor: text; clear: both; position: relative; direction: ltr; font-family: &amp;quot;Segoe UI&amp;quot;, &amp;quot;Segoe UI Web&amp;quot;, Arial, Verdana, sans-serif; text-align: start; background-color: rgb(255, 255, 255);&quot; class=&quot;OutlineElement Ltr SCXW79170018 BCX0&quot;&gt;&lt;p style=&quot;margin: 0px; padding: 0px; user-select: text; -webkit-user-drag: none; -webkit-tap-highlight-color: transparent; overflow-wrap: break-word; vertical-align: baseline; font-kerning: none; background-color: transparent; color: windowtext;&quot; class=&quot;Paragraph SCXW79170018 BCX0&quot;&gt;&lt;span style=&quot;margin: 0px; padding: 0px; user-select: text; -webkit-user-drag: none; -webkit-tap-highlight-color: transparent; font-size: 11pt; line-height: 19.425px; font-family: Calibri, Calibri_EmbeddedFont, Calibri_MSFontService, sans-serif; font-variant-ligatures: none !important;&quot; class=&quot;TextRun SCXW79170018 BCX0&quot; lang=&quot;EN-US&quot; data-contrast=&quot;none&quot;&gt;&lt;span style=&quot;margin: 0px; padding: 0px; user-select: text; -webkit-user-drag: none; -webkit-tap-highlight-color: transparent;&quot; class=&quot;NormalTextRun SCXW79170018 BCX0&quot;&gt;We currently &lt;/span&gt;&lt;span style=&quot;margin: 0px; padding: 0px; user-select: text; -webkit-user-drag: none; -webkit-tap-highlight-color: transparent;&quot; class=&quot;NormalTextRun SCXW79170018 BCX0&quot;&gt;don’t&lt;/span&gt;&lt;span style=&quot;margin: 0px; padding: 0px; user-select: text; -webkit-user-drag: none; -webkit-tap-highlight-color: transparent;&quot; class=&quot;NormalTextRun SCXW79170018 BCX0&quot;&gt; know how to get the first and last letters of the word, or how to get half a word with block coding, so &lt;/span&gt;&lt;span style=&quot;margin: 0px; padding: 0px; user-select: text; -webkit-user-drag: none; -webkit-tap-highlight-color: transparent;&quot; class=&quot;NormalTextRun SCXW79170018 BCX0&quot;&gt;we’ll&lt;/span&gt;&lt;span style=&quot;margin: 0px; padding: 0px; user-select: text; -webkit-user-drag: none; -webkit-tap-highlight-color: transparent;&quot; class=&quot;NormalTextRun SCXW79170018 BCX0&quot;&gt; need to research how to do that&lt;/span&gt;&lt;span style=&quot;margin: 0px; padding: 0px; user-select: text; -webkit-user-drag: none; -webkit-tap-highlight-color: transparent;&quot; class=&quot;NormalTextRun SCXW79170018 BCX0&quot;&gt;.&amp;nbsp;&lt;/span&gt;&lt;/span&gt;&lt;span style=&quot;margin: 0px; padding: 0px; user-select: text; -webkit-user-drag: none; -webkit-tap-highlight-color: transparent; font-size: 11pt; line-height: 19.425px; font-family: Calibri, Calibri_EmbeddedFont, Calibri_MSFontService, sans-serif; font-weight: bold; font-variant-ligatures: none !important;&quot; class=&quot;TextRun SCXW79170018 BCX0&quot; lang=&quot;EN-US&quot; data-contrast=&quot;none&quot;&gt;&amp;nbsp;&lt;/span&gt;&lt;span style=&quot;margin: 0px; padding: 0px; user-select: text; -webkit-user-drag: none; -webkit-tap-highlight-color: transparent; font-size: 11pt; line-height: 19.425px; font-family: Calibri, Calibri_EmbeddedFont, Calibri_MSFontService, sans-serif;&quot; data-ccp-props=&quot;{&amp;quot;201341983&amp;quot;:0,&amp;quot;335559739&amp;quot;:160,&amp;quot;335559740&amp;quot;:259}&quot; class=&quot;EOP SCXW79170018 BCX0&quot;&gt;&amp;nbsp;&lt;/span&gt;&lt;/p&gt;&lt;/div&gt;" style="text;html=1;align=center;verticalAlign=middle;resizable=0;points=[];autosize=1;strokeColor=none;fillColor=none;" vertex="1" parent="1">
          <mxGeometry x="210" y="588" width="980" height="50" as="geometry" />
        </mxCell>
      </root>
    </mxGraphModel>
  </diagram>
</mxfile>
